HIERARCHY
ROOT Hip
{
    OFFSET 0.0 0.0 0.0
    CHANNELS 6 Xposition Yposition Zposition Zrotation Xrotation Yrotation
    JOINT RightHip
    {
        OFFSET -6.154646581646247 0.0 0.0
        CHANNELS 3 Zrotation Xrotation Yrotation
        JOINT RightKnee
        {
            OFFSET 0.0 0.0 -26.456573017723734
            CHANNELS 3 Zrotation Xrotation Yrotation
            JOINT RightAnkle
            {
                OFFSET 0.0 0.0 -30.48367641568322
                CHANNELS 3 Zrotation Xrotation Yrotation
                End Site
                {
                    OFFSET 0.0 -12.19347056627329 0.0
                }
            }
        }
    }
    JOINT LeftHip
    {
        OFFSET 6.154646581646247 0.0 0.0
        CHANNELS 3 Zrotation Xrotation Yrotation
        JOINT LeftKnee
        {
            OFFSET 0.0 0.0 -26.456573017723734
            CHANNELS 3 Zrotation Xrotation Yrotation
            JOINT LeftAnkle
            {
                OFFSET 0.0 0.0 -30.48367641568322
                CHANNELS 3 Zrotation Xrotation Yrotation
                End Site
                {
                    OFFSET 0.0 -12.19347056627329 0.0
                }
            }
        }
    }
    JOINT Spine
    {
        OFFSET 0.0 0.0 19.468948628340613
        CHANNELS 3 Zrotation Xrotation Yrotation
        JOINT Thorax
        {
            OFFSET 0.0 0.0 19.79530555250011
            CHANNELS 3 Zrotation Xrotation Yrotation
            JOINT Neck
            {
                OFFSET 0.0 0.0 11.70365148178162
                CHANNELS 3 Zrotation Xrotation Yrotation
                End Site
                {
                    OFFSET 0.0 0.0 4.681460592712648
                }
            }
            JOINT LeftShoulder
            {
                OFFSET 9.203409744784121 0.0 0.0
                CHANNELS 3 Zrotation Xrotation Yrotation
                JOINT LeftElbow
                {
                    OFFSET 24.42726027385425 0.0 0.0
                    CHANNELS 3 Zrotation Xrotation Yrotation
                    JOINT LeftWrist
                    {
                        OFFSET 14.680553440884506 0.0 0.0
                        CHANNELS 3 Zrotation Xrotation Yrotation
                        End Site
                        {
                            OFFSET 5.872221376353803 0.0 0.0
                        }
                    }
                }
            }
            JOINT RightShoulder
            {
                OFFSET -9.203409744784121 0.0 0.0
                CHANNELS 3 Zrotation Xrotation Yrotation
                JOINT RightElbow
                {
                    OFFSET -24.42726027385425 0.0 0.0
                    CHANNELS 3 Zrotation Xrotation Yrotation
                    JOINT RightWrist
                    {
                        OFFSET -14.680553440884506 0.0 0.0
                        CHANNELS 3 Zrotation Xrotation Yrotation
                        End Site
                        {
                            OFFSET -5.872221376353803 0.0 0.0
                        }
                    }
                }
            }
        }
    }
}
MOTION
Frames: 6
Frame Time: 0.03333333333333333
0.0 0.0 69.13840256258285 -3.705239950451909 -2.027565555005105 2.126143888267183 5.089746997331122 -2.0751910142161982 14.679911739248478 -8.14772648251851 34.13062253743622 -44.97836870626184 0.0 0.0 7.951386703658792e-16 -30.386444772487362 -27.289571616124192 -1.5514111074683494 45.0371227202921 36.01993269132466 -51.58739046039913 -5.92687613263571e-35 -2.4848083448933722e-17 -2.7332891793827095e-16 0.2803415066834813 3.301820510876972 3.1583367506294455 10.193915827174102 -6.519017983669107e-16 -2.2743732895980266e-15 157.86992251855958 -19.580205695279687 7.712633628865097 -41.87447437154345 6.134964326508632 81.13562320250614 -72.76445035768779 7.007795215589301e-15 1.212619736463643e-15 0.0 0.0 1.5902773407317584e-15 64.38741443069463 21.34865425572523 -73.5639850936665 154.0246071279823 -1.2396763351094947e-14 -2.8592145294505376e-15 -3.1805546814635168e-15 0.0 0.0
0.0 0.0 69.13840256258285 0.010863194817489949 -1.7985967484863694 2.027035159072741 4.382736910572238 -1.330020504696574 14.05381023008459 -7.038807939868474 30.94300664774837 -45.56151900880774 6.620859447075238e-32 -3.1805546814635168e-15 2.3854160110976376e-15 -27.913375611051585 -26.47096353755141 -0.3767781198861587 40.854216949898856 34.69692230098919 -49.088562430479534 -3.975693351829396e-16 -5.517382872562698e-33 1.5902773407317584e-15 0.2818406037411116 3.682751338889816 3.051861157679866 9.869610633449177 -2.065977601331576e-16 -8.192402330681874e-17 157.48035266979224 -18.797848787708272 9.336474309383782 -41.66095065851001 6.8790157338538975 80.54245223443536 -74.52045494305366 8.914013448529495e-15 -1.2115233772698157e-15 0.0 0.0 -6.361109362927032e-15 49.871778896735044 16.49669950947629 -70.45849862757787 156.78080759338582 1.3742064216335125e-14 -3.670726455309841e-15 -1.5902773407317584e-15 0.0 0.0
0.0 0.0 69.13840256258285 2.193113413039597 -1.7216698861760575 2.27998948646392 3.7106208495883584 -0.9359074701565859 13.489829856356597 -6.343813390930731 30.45541134782846 -46.29389296801414 0.0 0.0 7.951386703658792e-16 -26.009635512735343 -25.2835070006042 -0.3721619270142772 37.72993341849052 33.518443293187616 -44.760415616443886 0.0 0.0 9.93923337957349e-16 0.3645069184561685 3.9123156031051436 2.6550300173730226 9.03290041616391 -8.343033555731203e-17 2.059940756323061e-16 137.1683007479368 -22.87782365879284 4.939668381363552 -39.893073980196895 7.291793714887998 79.97052825965305 -75.92708356963638 -2.87411891949463e-14 5.813598765958937e-15 0.0 0.0 0.0 5.03777962740017 -3.082788296007016 -62.85658086557337 161.23609510417842 8.881982925627469e-15 -4.979823505617636e-15 0.0 0.0 0.0
0.0 0.0 69.13840256258285 1.571676944076876 -1.780311129836016 2.337252902050359 3.701271757432133 -1.2473839312554216 13.95945915599327 -6.2967019925595995 31.350736334390835 -46.234073552090614 -3.1805546814635176e-15 -8.827812596100317e-32 3.1805546814635176e-15 -25.176039950975824 -25.516490044033745 -0.20199756423797727 37.18888308969765 34.11123625540538 -44.81055499030997 0.0 0.0 4.0253895187272635e-15 0.31937241732520516 3.9440714368480014 2.5992424976087043 9.780762904567244 -5.184537377873276e-16 -2.2996808385018234e-16 134.99607407650632 -23.344241371295716 4.553080120127299 -40.04742780023273 6.91534071734111 80.33368596184154 -75.13616100246578 1.2217213651109574e-14 1.541667732461205e-14 6.361109362927035e-15 -6.361109362927035e-15 -6.361109362927035e-15 4.70300779587831 -3.278689535069319 -62.7182364458734 161.23481543779823 -9.13456500467073e-15 1.1385361540062108e-14 0.0 0.0 0.0
0.0 0.0 69.13840256258285 5.9418042364589345 -1.7686706915943686 2.968021197684595 2.1380762916874883 -0.6305196791318188 11.930133079187977 -5.73020116211912 28.182748224397656 -42.457126886804076 0.0 0.0 -1.1927080055488188e-15 -20.69567330690213 -25.27442321953686 1.9715285886431237 32.76272350911753 32.765492226652064 -42.61999873442782 0.0 0.0 7.951386703658792e-16 0.4310561430147338 4.953406554471861 0.6998980072649862 7.987977776780448 -8.75051372053754e-16 3.1018307300970747e-16 117.45550054122936 -24.741092979071905 -0.6540207190672236 -25.773755577212142 3.1148444205950505 83.2004785246131 -72.74896618047853 -3.707002396149799e-15 -5.693158623124652e-15 0.0 0.0 -3.1805546814635168e-15 -63.49368448514015 -29.798371563986215 -80.74456748755107 121.29994323699576 3.1178578133611448e-15 -5.544607739306797e-15 0.0 0.0 0.0
0.0 0.0 69.13840256258285 8.988422315350189 -2.0131685923433866 4.9017130063316765 1.2189001622978168 1.2086031554821706 4.628268203643166 -11.673611630578415 25.705320677570384 -27.04006246747457 0.0 0.0 -1.1927080055488188e-15 -22.701051512486213 -23.731685585477862 -3.098903364377915 33.89360273778571 33.56972007386413 -36.51610087672434 1.5902773407317584e-15 -2.2069531490250793e-32 -1.5902773407317584e-15 0.6374793963830765 5.812293658294213 -1.543276164824346 5.829076225272439 -2.49064912512576e-16 -9.825302108133026e-16 106.25590987021393 -25.116689037527397 -3.459382309426629 -11.883269622255806 2.141429136740655 86.38265472359728 -67.473778693054 -2.2632209178065765e-15 3.3888278832643004e-15 0.0 0.0 0.0 -65.90352053581209 -50.92685078053787 -79.60600219885426 74.95979644209054 -4.459296437879845e-15 -5.886692132863039e-16 0.0 0.0 0.0
